<?xml version="1.0" encoding="utf-8"?>
<!-- Generator: Adobe Illustrator 27.0.1, SVG Export Plug-In . SVG Version: 6.00 Build 0)  -->
<svg version="1.1" id="Calque_1" xmlns="http://www.w3.org/2000/svg" xmlns:xlink="http://www.w3.org/1999/xlink" x="0px" y="0px"
	 viewBox="0 0 841.89 207.38" style="enable-background:new 0 0 841.89 207.38;" xml:space="preserve">
<style type="text/css">
	.st0{fill:none;}
	.st1{fill:#FFFFFF;}
	.st2{fill:#009FE3;}
</style>
<g>
	<path class="st0" d="M42.52,66.92c-2.07,0-4.24,0.09-6.49,0.27c-2.26,0.18-4.48,0.58-6.68,1.19v54.68
		c1.95,1.34,4.54,2.59,7.77,3.75c3.23,1.16,6.68,1.74,10.33,1.74c8.05,0,13.93-2.74,17.65-8.23c3.72-5.49,5.58-12.86,5.58-22.13
		c0-9.87-2.23-17.56-6.67-23.04C59.55,69.66,52.39,66.92,42.52,66.92z"/>
	<path class="st0" d="M333.81,72.5c-1.65-2.01-3.66-3.59-6.03-4.75c-2.38-1.16-5.21-1.74-8.5-1.74c-3.41,0-6.4,0.64-8.96,1.92
		c-2.56,1.28-4.73,2.96-6.49,5.03c-1.77,2.07-3.14,4.45-4.11,7.13c-0.98,2.68-1.65,5.43-2.01,8.23h41.15c0-3.05-0.43-5.94-1.28-8.69
		C336.7,76.89,335.45,74.51,333.81,72.5z"/>
	<path class="st1" d="M80.28,61.34c-4.21-4.33-9.3-7.65-15.27-9.97c-5.98-2.31-12.74-3.48-20.3-3.48c-7.31,0-14.26,0.55-20.85,1.65
		c-6.58,1.1-12.13,2.26-16.64,3.48v126.37h22.13v-37.12c2.44,1.34,5.55,2.56,9.33,3.66c3.78,1.1,7.92,1.65,12.44,1.65
		c6.7,0,12.71-1.22,18.01-3.66c5.3-2.44,9.72-5.85,13.26-10.24c3.53-4.39,6.25-9.63,8.14-15.73c1.89-6.09,2.83-12.8,2.83-20.12
		c0-7.68-1.13-14.6-3.38-20.76C87.72,70.92,84.49,65.67,80.28,61.34z M65.1,120.32c-3.72,5.49-9.6,8.23-17.65,8.23
		c-3.66,0-7.1-0.58-10.33-1.74c-3.23-1.16-5.82-2.41-7.77-3.75V68.38c2.2-0.61,4.42-1.01,6.68-1.19c2.25-0.18,4.42-0.27,6.49-0.27
		c9.88,0,17.04,2.74,21.49,8.23c4.45,5.49,6.67,13.17,6.67,23.04C70.68,107.46,68.82,114.83,65.1,120.32z"/>
	<rect x="108.78" y="49.91" class="st1" width="22.13" height="95.64"/>
	<path class="st1" d="M319.09,47.53c-5.61,0-11.1,1.07-16.46,3.2c-5.37,2.13-10.12,5.3-14.27,9.51c-4.15,4.21-7.47,9.48-9.97,15.82
		c-2.5,6.34-3.75,13.72-3.75,22.13c0,7.2,0.97,13.81,2.93,19.84c1.95,6.03,4.94,11.28,8.96,15.73c4.02,4.45,9.14,7.93,15.36,10.42
		c6.22,2.5,13.53,3.75,21.95,3.75c3.29,0,6.52-0.18,9.69-0.55c3.17-0.37,6.13-0.82,8.87-1.37c2.74-0.55,5.18-1.16,7.31-1.83
		c2.13-0.67,3.81-1.31,5.03-1.92l-2.93-18.1c-2.56,1.1-6.07,2.13-10.52,3.11c-4.45,0.98-9.36,1.46-14.72,1.46
		c-9.14,0-16.12-2.1-20.94-6.31c-4.82-4.21-7.53-10.15-8.14-17.83h63.09c0.12-1.22,0.21-2.59,0.27-4.12
		c0.06-1.52,0.09-2.89,0.09-4.12c0-16.21-3.69-28.41-11.06-36.58C342.52,51.62,332.25,47.53,319.09,47.53z M297.69,88.32
		c0.37-2.8,1.03-5.55,2.01-8.23c0.97-2.68,2.35-5.06,4.11-7.13c1.77-2.07,3.93-3.75,6.49-5.03c2.56-1.28,5.55-1.92,8.96-1.92
		c3.29,0,6.13,0.58,8.5,1.74c2.38,1.16,4.39,2.74,6.03,4.75c1.65,2.01,2.89,4.39,3.75,7.13c0.85,2.74,1.28,5.64,1.28,8.69H297.69z"
		/>
	<path class="st1" d="M436.31,127.64c-3.66,0.73-7.38,1.1-11.16,1.1c-10.12,0-17.31-2.77-21.58-8.32c-4.27-5.55-6.4-13.08-6.4-22.59
		c0-9.87,2.25-17.52,6.77-22.95c4.51-5.42,11.09-8.14,19.75-8.14c3.66,0,7.1,0.36,10.33,1.1c3.23,0.73,6.13,1.65,8.69,2.74
		l4.76-18.1c-8.05-3.29-16.58-4.94-25.6-4.94c-7.31,0-13.9,1.28-19.75,3.84c-5.85,2.56-10.82,6.1-14.9,10.61
		c-4.09,4.51-7.22,9.85-9.42,16c-2.19,6.16-3.29,12.77-3.29,19.84c0,7.2,0.97,13.87,2.93,20.03c1.95,6.16,4.91,11.46,8.87,15.91
		c3.96,4.45,8.96,7.93,15,10.42c6.03,2.5,13.14,3.75,21.31,3.75c5.24,0,10.33-0.49,15.27-1.46c4.94-0.97,8.62-2.07,11.06-3.29
		l-3.11-18.29C443.14,125.99,439.97,126.9,436.31,127.64z"/>
	<path class="st1" d="M520.92,127.27c-1.46,0.37-3.69,0.67-6.67,0.91c-2.99,0.25-5.82,0.37-8.5,0.37c-7.44,0-12.65-2.19-15.64-6.58
		c-2.99-4.39-4.48-11.7-4.48-21.94V49.91H463.5v53.58c0,6.46,0.67,12.41,2.01,17.83c1.34,5.43,3.57,10.09,6.67,13.99
		c3.11,3.9,7.25,6.95,12.44,9.14c5.18,2.19,11.61,3.29,19.29,3.29c8.17,0,15.66-0.58,22.49-1.74c6.83-1.16,12.37-2.29,16.64-3.38
		V49.91h-22.13V127.27z"/>
	<path class="st1" d="M608.82,48.91c-1.95-0.3-3.9-0.55-5.85-0.73c-1.95-0.18-3.66-0.27-5.12-0.27c-7.8,0-14.9,0.7-21.3,2.1
		c-6.4,1.4-11.74,2.9-16,4.48v91.07h22.13V68.93c1.1-0.36,3.02-0.79,5.76-1.28c2.74-0.49,5.33-0.73,7.77-0.73
		c4.27,0,8.02,0.34,11.25,1c3.23,0.67,5.76,1.31,7.59,1.92l3.84-18.65c-1.1-0.37-2.56-0.76-4.39-1.19
		C612.66,49.58,610.77,49.21,608.82,48.91z"/>
	<rect x="632.9" y="49.91" class="st1" width="22.13" height="95.64"/>
	<path class="st1" d="M723.39,127.45c-3.11,0.85-6.67,1.28-10.7,1.28c-5.85,0-10-1.65-12.43-4.94c-2.44-3.29-3.66-8.78-3.66-16.46
		V68.38h34.02V49.91H696.6V21.02l-22.13,3.66v82.84c0,6.34,0.55,11.98,1.65,16.92c1.1,4.94,2.99,9.14,5.67,12.62
		c2.68,3.48,6.31,6.13,10.88,7.95c4.57,1.83,10.27,2.74,17.1,2.74c5.61,0,10.48-0.58,14.63-1.74c4.14-1.16,7.5-2.29,10.06-3.38
		l-3.66-17.56C728.97,125.81,726.5,126.6,723.39,127.45z"/>
	<polygon class="st1" points="632.9,41.26 655.08,41.26 655.09,27.99 632.97,31.65 	"/>
	<polygon class="st1" points="108.78,41.26 130.96,41.26 131.02,31.68 108.9,28.03 	"/>
	<path class="st1" d="M817.79,49.55c-1.91-0.32-3.88-0.58-5.87-0.8v19.64c0.01,0,0.01,0,0.02,0v54.68
		c-1.95,1.34-4.54,2.59-7.77,3.75c-3.23,1.16-6.67,1.74-10.33,1.74c-8.05,0-13.93-2.74-17.65-8.23c-3.51-5.17-5.34-12.04-5.54-20.56
		V49.91h-22.83v49.85h0.15c0.15,6.68,1.08,12.81,2.8,18.37c1.89,6.1,4.6,11.34,8.14,15.73c3.53,4.39,7.92,7.77,13.17,10.15
		c5.24,2.38,11.28,3.57,18.11,3.57c4.51,0,8.62-0.55,12.34-1.65c3.72-1.1,6.86-2.31,9.42-3.66v37.12h22.13V53.02
		C829.8,51.8,824.37,50.64,817.79,49.55z"/>
	<path class="st2" d="M231.98,51.28c-3.32,0.91-6.27,2.08-8.84,3.49c-2.57,1.41-5.07,3.3-7.47,5.69c-2.41,2.38-4.45,4.68-6.14,6.89
		c-1.69,2.21-3.46,4.98-5.31,8.3c-1.86,3.32-3.35,6.23-4.48,8.72c-1.14,2.49-2.5,5.56-4.11,9.22c-2.55,6.04-4.71,10.77-6.48,14.2
		c-1.32,2.54-2.57,4.69-3.73,6.43c-1.16,1.74-2.58,3.44-4.24,5.11c-1.66,1.66-3.57,2.91-5.73,3.74c-2.15,0.83-4.56,1.24-7.22,1.24
		h-18.6c-0.27,0-0.52,0.04-0.76,0.1v21.05c0.24,0.06,0.49,0.1,0.77,0.1h18.6c3.77,0,7.31-0.46,10.63-1.37
		c3.32-0.91,6.27-2.08,8.84-3.49c2.57-1.41,5.07-3.3,7.47-5.69c2.41-2.38,4.45-4.68,6.15-6.89c1.69-2.21,3.46-4.98,5.31-8.31
		c1.86-3.32,3.35-6.22,4.48-8.72c1.13-2.49,2.51-5.56,4.11-9.22c2.55-6.04,4.7-10.77,6.47-14.2c1.33-2.55,2.58-4.69,3.74-6.44
		c1.16-1.74,2.57-3.44,4.23-5.11c1.66-1.66,3.57-2.91,5.73-3.74c2.15-0.83,4.56-1.24,7.22-1.24h18.1V49.91h-18.1
		C238.85,49.91,235.31,50.36,231.98,51.28z"/>
	<path class="st1" d="M168.22,71.16c2.43,0,4.69,0.4,6.76,1.2c2.08,0.8,3.82,1.77,5.23,2.91c1.41,1.13,2.82,2.7,4.24,4.69
		c1.41,1.99,2.53,3.75,3.36,5.27c0.83,1.52,1.86,3.53,3.08,6.02c4.26-10.02,8.05-17.58,11.38-22.67
		c-8.86-12.46-20.21-18.68-34.04-18.68h-18.6c-0.27,0-0.52,0.04-0.76,0.1v21.05c0.24,0.06,0.49,0.1,0.76,0.1H168.22z"/>
	<path class="st1" d="M235.84,123.1c-2.07-0.8-3.82-1.77-5.23-2.91c-1.41-1.13-2.82-2.7-4.23-4.69c-1.41-1.99-2.53-3.75-3.36-5.27
		c-0.83-1.52-1.86-3.53-3.07-6.02c-4.27,9.96-8.03,17.52-11.29,22.67c1.49,2.16,3.04,4.09,4.65,5.77c1.6,1.69,3.12,3.17,4.57,4.44
		c1.44,1.27,3.07,2.38,4.9,3.33c1.83,0.94,3.43,1.73,4.82,2.36c1.39,0.64,3.13,1.15,5.23,1.54c2.1,0.39,3.88,0.68,5.31,0.87
		c1.44,0.19,3.4,0.33,5.9,0.42c2.49,0.08,4.51,0.11,6.06,0.08c1.55-0.02,3.79-0.05,6.73-0.08c1.44-0.01,2.74-0.03,3.9-0.03v-21.26
		h-18.1C240.17,124.31,237.92,123.91,235.84,123.1z"/>
</g>
</svg>
