<svg xmlns="http://www.w3.org/2000/svg" width="307.694" height="60" fill="none"><g transform="matrix(2.0833333,0,0,2.0833333,5,5.0000008)"><path fill="#002677" d="m 47.806,20.263 c 0,-2.04 -1.69,-2.798 -3.297,-3.05 1.626,-0.398 2.809,-1.336 2.79,-2.889 -0.017,-1.913 -1.498,-3.15 -5.012,-3.15 h -7.55 v 12.501 h 7.893 c 3.514,-0.009 5.176,-1.444 5.176,-3.412 z m -9.068,-6.796 h 2.276 c 1.472,0 2.122,0.397 2.122,1.363 0,0.956 -0.587,1.399 -2.122,1.399 h -2.276 z m 0,7.897 v -2.906 h 2.781 c 1.157,0 2.14,0.28 2.14,1.435 0,1.092 -0.812,1.471 -2.14,1.471 z m 18.108,2.627 c 4.94,0 7.669,-2.491 7.669,-6.58 0,-3.9 -2.231,-6.58 -7.669,-6.58 -4.958,0 -7.668,2.473 -7.668,6.58 0,3.9 2.105,6.58 7.668,6.58 z m 0,-10.596 c 2.575,0 3.487,1.678 3.487,4.016 0,2.32 -0.93,4.017 -3.487,4.017 -2.61,0 -3.486,-1.715 -3.486,-4.017 0,-2.32 1.039,-4.017 3.486,-4.017 z m 13.62,5.56 h 2.213 c 1.626,0 2.05,0.28 2.25,1.11 0.071,0.343 0.207,1.588 0.379,2.6 0.072,0.396 0.135,0.757 0.225,1.001 h 4.245 a 8.395,8.395 0 0 1 -0.28,-1.11 c -0.135,-0.695 -0.397,-2.284 -0.514,-2.907 -0.28,-1.38 -1.04,-1.814 -2.8,-2.04 1.662,-0.243 3.107,-1.209 3.107,-3.032 0,-2.284 -1.816,-3.412 -4.923,-3.412 h -7.957 v 12.501 h 4.055 v -4.712 z m 0,-5.37 h 2.665 c 1.364,0 2.122,0.378 2.122,1.452 0,0.966 -0.569,1.544 -2.122,1.544 h -2.665 v -2.997 z m 22.48,7.5 H 85.83 V 18.63 h 6.593 V 16.084 H 85.83 v -2.338 h 6.99 v -2.58 H 81.783 v 12.5 h 11.173 v -2.581 z m 5.835,0.207 h 6.738 l 1.057,2.374 h 4.353 l -6.16,-12.5 h -4.75 l -6.268,12.5 h 3.947 z m 3.414,-7.5 2.24,5.072 h -4.552 z m 20.322,7.202 h -6.702 v -9.838 h -4.073 v 12.501 h 10.775 z m 5.428,-9.829 h -4.073 v 12.501 h 4.073 v -12.5 z m 10.865,5.09 -2.194,-0.505 c -1.346,-0.316 -2.249,-0.523 -2.249,-1.335 0,-0.632 0.605,-1.192 1.969,-1.192 1.156,0 2.213,0.47 2.276,1.345 h 3.938 c -0.055,-1.86 -1.996,-3.737 -6.115,-3.737 -3.45,0 -6.205,1.192 -6.205,4.089 0,2.301 1.987,2.996 4.01,3.466 l 2.276,0.523 c 1.346,0.316 2.276,0.569 2.276,1.436 0,0.65 -0.433,1.263 -2.348,1.263 -1.291,0 -2.42,-0.659 -2.457,-1.625 h -4.091 c 0.009,0.948 1.346,4.017 6.44,4.017 3.224,0 6.557,-1.02 6.557,-4.053 0.018,-2.545 -1.87,-3.195 -4.083,-3.691 z M 5.6,23.667 H 23.582 V 11.454 c -0.75,-0.081 -1.282,-0.1 -1.87,-0.1 -7.117,0 -14.008,6.057 -16.112,12.312 z"/><path fill="#005d9a" d="M 23.582,9.333 V 0 C 22.995,0 22.173,0.126 21.649,0.253 14.388,1.986 8.842,8.114 4.877,16.409 H 4.77 C 4.914,15.525 5.619,6.508 13.72,0 H 0 V 23.666 H 2.98 C 6.196,17.466 13.15,10.055 23.582,9.333 Z"/></g></svg>