<?xml version="1.0" encoding="utf-8"?>
<!-- Generator: Adobe Illustrator 19.0.0, SVG Export Plug-In . SVG Version: 6.00 Build 0)  -->
<svg version="1.1" id="layer" xmlns="http://www.w3.org/2000/svg" xmlns:xlink="http://www.w3.org/1999/xlink" x="0px" y="0px"
	 viewBox="-153 -46 652 652" style="enable-background:new -153 -46 652 652;" xml:space="preserve">
<style type="text/css">
	.st0{fill:#D9B4D3;}
	.st1{fill:#EC6C00;}
	.st2{fill:#767CBA;}
	.st3{fill:#009A63;}
	.st4{fill:#F7B515;}
	.st5{fill:#003B82;}
	.st6{fill:#0096BD;}
	.st7{fill:#23B6BC;}
</style>
<title>logo</title>
<polygon class="st0" points="-131.2,209.6 -131.2,230.4 -87.5,230.4 -87.5,185.7 "/>
<polygon class="st1" points="-33.5,209.6 -33.5,230.4 -77.2,230.4 -77.2,185.7 "/>
<rect x="-131.2" y="240.7" class="st2" width="43.7" height="43.7"/>
<polygon class="st3" points="-77.2,263.7 -77.2,284.4 -33.5,284.4 -33.5,239.7 "/>
<polygon class="st4" points="20.6,263.7 20.6,284.4 -23.2,284.4 -23.2,239.7 "/>
<rect x="-131.2" y="294.7" class="st5" width="43.7" height="43.7"/>
<rect x="-77.2" y="294.7" class="st6" width="43.7" height="43.7"/>
<rect x="-23.2" y="294.8" class="st7" width="43.7" height="43.7"/>
<path class="st5" d="M35,265.6h49.2V281H51.6v14h30.1v15.4H51.6v28.2H35V265.6z M165,274.1c3.5,3.3,6.3,7.4,8.2,12.1
	c1.9,4.7,2.9,10,2.9,15.8c0,5.8-1,11.1-2.9,15.9c-1.9,4.7-4.7,8.8-8.2,12.1c-3.5,3.3-7.7,5.9-12.5,7.7c-4.8,1.8-10.1,2.7-15.7,2.7
	c-5.7,0-10.9-0.9-15.7-2.7c-4.8-1.8-9-4.4-12.5-7.7c-3.5-3.3-6.2-7.4-8.2-12.1c-1.9-4.7-2.9-10-2.9-15.9c0-5.8,1-11.1,2.9-15.8
	c1.9-4.7,4.7-8.8,8.2-12.1c3.5-3.3,7.7-5.9,12.5-7.7c4.8-1.8,10.1-2.7,15.7-2.7c5.7,0,11,0.9,15.7,2.7
	C157.3,268.2,161.5,270.8,165,274.1 M136.8,325c3.3,0,6.4-0.6,9.1-1.7c2.7-1.1,5.1-2.7,7-4.8c1.9-2,3.4-4.5,4.5-7.2
	c1-2.8,1.6-5.9,1.6-9.2c0-3.3-0.5-6.4-1.6-9.2c-1-2.8-2.5-5.3-4.5-7.3c-1.9-2-4.3-3.6-7-4.8c-2.7-1.1-5.8-1.7-9.1-1.7
	c-3.3,0-6.4,0.6-9.1,1.7c-2.7,1.1-5.1,2.7-7,4.8c-1.9,2-3.4,4.5-4.5,7.3c-1,2.8-1.6,5.9-1.6,9.2c0,3.4,0.5,6.5,1.6,9.2
	c1,2.8,2.5,5.2,4.5,7.2c1.9,2,4.3,3.6,7,4.8C130.4,324.4,133.5,325,136.8,325 M244.3,315.2l-30.4-49.7h-22.2v72.9h16.6v-50.9
	l31.1,50.7l0.1,0.2h21.4v-72.9h-16.6V315.2z M329.9,317.4c-1.6,2.4-3.6,4.3-6.1,5.6c-2.5,1.3-5.3,2-8.5,2c-2.8,0-5.4-0.6-7.9-1.7
	c-2.4-1.1-4.6-2.7-6.4-4.8c-1.8-2-3.2-4.5-4.3-7.2c-1-2.8-1.6-5.9-1.6-9.2c0-3.3,0.5-6.4,1.6-9.2c1-2.8,2.5-5.3,4.3-7.3
	c1.8-2,4-3.6,6.5-4.8c2.5-1.1,5.3-1.7,8.2-1.7c2.9,0,5.5,0.5,7.8,1.5c2.2,1,4.1,2.4,5.6,4.3l0.2,0.3l12.8-10.4l-0.2-0.3
	c-1.6-2-3.4-3.7-5.4-5.1c-2-1.4-4.1-2.5-6.3-3.3c-2.1-0.8-4.4-1.4-6.6-1.8c-2.2-0.4-4.4-0.6-6.4-0.6c-5.7,0-11,0.9-15.7,2.7
	c-4.8,1.8-9,4.4-12.5,7.7c-3.5,3.3-6.2,7.4-8.2,12.1c-2,4.7-2.9,10-2.9,15.8c0,5.8,1,11.1,2.9,15.8c1.9,4.7,4.7,8.8,8.2,12.1
	c3.5,3.3,7.7,5.9,12.5,7.7c4.8,1.8,10.1,2.7,15.7,2.7c5,0,9.9-1,14.6-3.1c4.7-2.1,8.7-5.3,11.8-9.6l0.2-0.3l-13.8-10.3L329.9,317.4z
	 M361.8,338.5h16.6v-72.9h-16.6V338.5z M468.8,338.5h-18.7l-6.2-15.3h-27.6l-6,15.3h-18.3l31.5-72.9H437l0.1,0.2L468.8,338.5z
	 M429.8,287.9l-8.3,21.2h16.6L429.8,287.9z"/>
<rect x="-131.2" y="359" class="st1" width="600" height="6.8"/>
</svg>
